<svg fill="#FFFFFF" xmlns="http://www.w3.org/2000/svg"  viewBox="0 0 100 100" width="50px" height="50px"><path d="M 48.134766 12.957031 C 28.026029 13.056036 14.031219 30.333409 13.001953 49.894531 C 11.937592 70.117399 29.628797 85.984152 49.900391 86.998047 C 71.075979 88.056826 85.949844 70.021328 86.998047 50.105469 C 88.071092 29.611367 70.347378 14.014866 50.099609 13.001953 C 49.438446 12.968897 48.783435 12.953838 48.134766 12.957031 z M 48.150391 16.957031 C 48.72786 16.954469 49.311491 16.968603 49.900391 16.998047 C 50.110313 17.008548 50.318129 17.029077 50.527344 17.042969 L 49.042969 21.027344 A 1.0005662 1.0005662 0 1 0 50.917969 21.726562 L 52.589844 17.236328 C 66.188831 18.876602 77.901581 27.638646 81.722656 39.771484 L 76.742188 42.863281 A 1.0001 1.0001 0 1 0 77.796875 44.5625 L 82.283203 41.777344 C 82.55275 42.920483 82.745962 44.091937 82.873047 45.285156 L 77.246094 47.996094 A 1.0002329 1.0002329 0 1 0 78.113281 49.798828 L 83.017578 47.4375 C 83.042852 48.248145 83.045364 49.065418 83.001953 49.894531 C 82.516279 59.122337 78.855688 67.791686 72.890625 73.951172 L 69.574219 70.572266 A 1.0001 1.0001 0 0 0 68.859375 70.263672 A 1.0001 1.0001 0 0 0 68.146484 71.972656 L 71.453125 75.34375 C 70.66555 76.060978 69.843842 76.736678 68.988281 77.367188 L 66.410156 72.578125 A 1.0001 1.0001 0 0 0 65.513672 72.041016 A 1.0001 1.0001 0 0 0 64.650391 73.527344 L 67.332031 78.509766 C 62.449273 81.623615 56.617473 83.327846 50.099609 83.001953 C 44.775456 82.735663 39.675195 81.339478 35.134766 79.066406 L 37.732422 75.304688 A 1.0001 1.0001 0 0 0 36.908203 73.724609 A 1.0001 1.0001 0 0 0 36.087891 74.167969 L 33.361328 78.117188 C 32.760835 77.774387 32.170462 77.419087 31.59375 77.044922 L 34.630859 73.412109 A 1.0001 1.0001 0 0 0 33.853516 71.759766 A 1.0001 1.0001 0 0 0 33.097656 72.128906 L 29.9375 75.90625 C 29.28743 75.430722 28.6608 74.929612 28.048828 74.414062 L 30.441406 71.630859 A 1.0001 1.0001 0 0 0 29.6875 69.96875 A 1.0001 1.0001 0 0 0 28.923828 70.326172 L 26.554688 73.083984 C 25.58853 72.168713 24.683855 71.200516 23.841797 70.185547 L 27.259766 67.558594 A 1.0001 1.0001 0 0 0 26.662109 65.757812 A 1.0001 1.0001 0 0 0 26.041016 65.972656 L 22.613281 68.607422 C 18.784217 63.354161 16.633167 57.001069 16.996094 50.105469 C 17.125928 47.637978 17.480156 45.222494 18.03125 42.886719 L 23.285156 44.306641 A 1.0003979 1.0003979 0 1 0 23.806641 42.375 L 18.541016 40.953125 C 18.888757 39.75367 19.289351 38.579571 19.744141 37.435547 L 22.947266 38.75 A 1.0003201 1.0003201 0 1 0 23.705078 36.898438 L 20.527344 35.595703 C 21.316266 33.882573 22.233046 32.252105 23.257812 30.712891 L 28.636719 32.861328 A 1.0001 1.0001 0 1 0 29.376953 31.003906 L 24.447266 29.035156 C 25.12573 28.1381 25.841933 27.277117 26.601562 26.460938 L 29.925781 28.759766 A 1.0001324 1.0001324 0 1 0 31.064453 27.115234 L 28.033203 25.019531 C 32.800425 20.513917 38.911347 17.581346 45.978516 17.052734 L 45.087891 21.783203 A 1.0001 1.0001 0 1 0 47.052734 22.154297 L 48.033203 16.960938 C 48.072613 16.960615 48.110926 16.957206 48.150391 16.957031 z M 65.197266 27.498047 C 64.810547 27.431625 64.404687 27.595359 64.179688 27.943359 C 63.889687 28.407359 64.020469 29.025219 64.480469 29.324219 C 64.950469 29.622219 65.569141 29.489391 65.869141 29.025391 C 66.159141 28.561391 66.030312 27.941578 65.570312 27.642578 C 65.452812 27.567828 65.326172 27.520187 65.197266 27.498047 z M 37.949219 29.246094 C 36.871241 29.354791 35.547139 29.9312 34.337891 30.902344 C 33.733266 31.387916 33.17579 31.980315 32.804688 32.716797 C 32.433583 33.453279 32.275307 34.360787 32.511719 35.275391 C 33.302746 38.33677 35.811958 39.802127 38.349609 39.761719 C 41.074126 39.718319 43.526305 37.332848 43.101562 34.029297 C 42.678742 30.741856 40.066797 29.03242 37.949219 29.246094 z M 38.148438 31.236328 C 38.904859 31.159998 40.821963 31.972644 41.119141 34.283203 C 41.414398 36.579652 39.985889 37.735123 38.316406 37.761719 C 36.458058 37.791309 35.042238 37.078012 34.447266 34.775391 C 34.337177 34.349494 34.395686 34.006392 34.591797 33.617188 C 34.787912 33.227981 35.147046 32.818115 35.591797 32.460938 C 36.481298 31.746581 37.788415 31.272631 38.148438 31.236328 z M 61.794922 40.439453 C 59.812225 40.49788 57.936394 41.409663 56.466797 42.302734 C 55.666064 42.789338 55.603575 42.913387 55.103516 43.302734 L 54.935547 41.613281 A 1.0001 1.0001 0 0 0 53.90625 40.712891 L 47.257812 40.933594 A 1.0001 1.0001 0 0 0 46.291016 41.902344 L 45.519531 66.304688 A 1.0001 1.0001 0 0 0 46.496094 67.335938 L 54.705078 67.535156 A 1.0001 1.0001 0 0 0 55.730469 66.511719 C 55.730469 66.511719 55.652719 63.3803 55.601562 59.996094 C 55.575983 58.30399 55.556171 56.547445 55.556641 55.09375 C 55.557106 53.641924 55.58581 52.443784 55.625 52.060547 C 55.817189 50.242358 57.117174 49.254802 58.556641 49.037109 C 59.995181 48.819557 61.389768 49.361207 61.943359 50.962891 C 62.009249 51.155077 62.194827 52.468623 62.279297 54.001953 C 62.363767 55.535284 62.410032 57.407287 62.435547 59.216797 C 62.486577 62.835817 62.449219 66.201172 62.449219 66.201172 A 1.0001 1.0001 0 0 0 63.455078 67.212891 L 70.625 67.177734 A 1.0001 1.0001 0 0 0 71.619141 66.191406 C 71.619141 66.191406 71.665549 62.767723 71.636719 58.835938 C 71.607879 54.904151 71.519477 50.52683 71.199219 48.330078 C 70.542078 43.823653 66.847886 40.894008 62.650391 40.46875 C 62.363663 40.439701 62.078164 40.431106 61.794922 40.439453 z M 34.419922 40.685547 A 1.0001 1.0001 0 0 0 33.386719 41.667969 L 32.978516 66.914062 A 1.0001 1.0001 0 0 0 34.064453 67.925781 L 42.177734 67.216797 A 1.0001 1.0001 0 0 0 43.089844 66.197266 L 42.539062 41.896484 A 1.0001 1.0001 0 0 0 41.572266 40.919922 L 34.419922 40.685547 z M 61.863281 42.443359 C 62.063935 42.434593 62.259697 42.439783 62.449219 42.458984 C 65.871723 42.805726 68.697844 45.033566 69.220703 48.619141 C 69.490445 50.469389 69.608056 54.943598 69.636719 58.851562 C 69.661529 62.234499 69.629724 64.434909 69.621094 65.181641 L 64.447266 65.207031 C 64.454366 64.425197 64.479577 62.311707 64.435547 59.189453 C 64.409817 57.364338 64.362487 55.471576 64.275391 53.890625 C 64.188301 52.309674 64.125049 51.157767 63.835938 50.314453 A 1.0001 1.0001 0 0 0 63.835938 50.3125 C 62.968801 47.796584 60.473346 46.725489 58.257812 47.060547 C 56.04228 47.395605 53.922577 49.126798 53.634766 51.849609 A 1.0001 1.0001 0 0 0 53.634766 51.853516 C 53.569036 52.492393 53.557121 53.622164 53.556641 55.09375 C 53.556169 56.565336 53.575893 58.327369 53.601562 60.025391 C 53.644663 62.876394 53.690322 64.728246 53.708984 65.511719 L 47.550781 65.361328 L 48.259766 42.900391 L 53.037109 42.744141 L 53.285156 45.238281 A 1.0001 1.0001 0 0 0 54.953125 45.878906 C 54.953125 45.878906 56.002899 44.925065 57.505859 44.011719 C 58.820949 43.21254 60.458705 42.504726 61.863281 42.443359 z M 35.371094 42.716797 L 40.5625 42.886719 L 41.068359 65.304688 L 34.996094 65.835938 L 35.371094 42.716797 z M 26.041016 52.089844 C 25.657156 52.023422 25.251594 52.187156 25.027344 52.535156 C 24.729344 52.999156 24.864125 53.618969 25.328125 53.917969 C 25.792125 54.216969 26.411938 54.081187 26.710938 53.617188 C 27.009938 53.153187 26.874156 52.533375 26.410156 52.234375 C 26.294156 52.159625 26.168969 52.111984 26.041016 52.089844 z M 27.628906 58.943359 C 27.245047 58.876937 26.841437 59.040672 26.617188 59.388672 C 26.318187 59.852672 26.453969 60.470531 26.917969 60.769531 C 27.381969 61.067531 27.999828 60.934703 28.298828 60.470703 C 28.597828 60.006703 28.462047 59.386891 27.998047 59.087891 C 27.882047 59.013141 27.756859 58.9655 27.628906 58.943359 z"/></svg>